<mxfile host="app.diagrams.net" agent="Mozilla/5.0 (Windows NT 10.0; Win64; x64) AppleWebKit/537.36 (KHTML, like Gecko) Chrome/128.0.0.0 Safari/537.36 Edg/128.0.0.0" version="24.7.13">
  <diagram id="C5RBs43oDa-KdzZeNtuy" name="Page-1">
    <mxGraphModel dx="1177" dy="650" grid="1" gridSize="10" guides="1" tooltips="1" connect="1" arrows="1" fold="1" page="1" pageScale="1" pageWidth="827" pageHeight="1169" math="0" shadow="0">
      <root>
        <mxCell id="WIyWlLk6GJQsqaUBKTNV-0" />
        <mxCell id="WIyWlLk6GJQsqaUBKTNV-1" parent="WIyWlLk6GJQsqaUBKTNV-0" />
        <mxCell id="4yEzGVLm3s_ddeEHZAAZ-44" value="" style="rounded=0;whiteSpace=wrap;html=1;labelBorderColor=#FFFFFF;" vertex="1" parent="WIyWlLk6GJQsqaUBKTNV-1">
          <mxGeometry width="360" height="920" as="geometry" />
        </mxCell>
        <mxCell id="4yEzGVLm3s_ddeEHZAAZ-2" value="" style="edgeStyle=orthogonalEdgeStyle;rounded=0;orthogonalLoop=1;jettySize=auto;html=1;" edge="1" parent="WIyWlLk6GJQsqaUBKTNV-1" source="4yEzGVLm3s_ddeEHZAAZ-0" target="4yEzGVLm3s_ddeEHZAAZ-1">
          <mxGeometry relative="1" as="geometry" />
        </mxCell>
        <object label="Start" id="4yEzGVLm3s_ddeEHZAAZ-0">
          <mxCell style="ellipse;whiteSpace=wrap;html=1;" vertex="1" parent="WIyWlLk6GJQsqaUBKTNV-1">
            <mxGeometry x="165" y="10" width="170" height="40" as="geometry" />
          </mxCell>
        </object>
        <mxCell id="4yEzGVLm3s_ddeEHZAAZ-5" value="" style="edgeStyle=orthogonalEdgeStyle;rounded=0;orthogonalLoop=1;jettySize=auto;html=1;" edge="1" parent="WIyWlLk6GJQsqaUBKTNV-1" source="4yEzGVLm3s_ddeEHZAAZ-1" target="4yEzGVLm3s_ddeEHZAAZ-4">
          <mxGeometry relative="1" as="geometry" />
        </mxCell>
        <mxCell id="4yEzGVLm3s_ddeEHZAAZ-1" value="GPS Initialization" style="shape=parallelogram;perimeter=parallelogramPerimeter;whiteSpace=wrap;html=1;fixedSize=1;" vertex="1" parent="WIyWlLk6GJQsqaUBKTNV-1">
          <mxGeometry x="175" y="90" width="150" height="60" as="geometry" />
        </mxCell>
        <mxCell id="4yEzGVLm3s_ddeEHZAAZ-7" value="" style="edgeStyle=orthogonalEdgeStyle;rounded=0;orthogonalLoop=1;jettySize=auto;html=1;" edge="1" parent="WIyWlLk6GJQsqaUBKTNV-1" source="4yEzGVLm3s_ddeEHZAAZ-4" target="4yEzGVLm3s_ddeEHZAAZ-6">
          <mxGeometry relative="1" as="geometry" />
        </mxCell>
        <mxCell id="4yEzGVLm3s_ddeEHZAAZ-4" value="Getting API Response" style="whiteSpace=wrap;html=1;" vertex="1" parent="WIyWlLk6GJQsqaUBKTNV-1">
          <mxGeometry x="165" y="190" width="170" height="60" as="geometry" />
        </mxCell>
        <mxCell id="4yEzGVLm3s_ddeEHZAAZ-16" value="" style="edgeStyle=orthogonalEdgeStyle;rounded=0;orthogonalLoop=1;jettySize=auto;html=1;" edge="1" parent="WIyWlLk6GJQsqaUBKTNV-1" source="4yEzGVLm3s_ddeEHZAAZ-6" target="4yEzGVLm3s_ddeEHZAAZ-15">
          <mxGeometry relative="1" as="geometry" />
        </mxCell>
        <mxCell id="4yEzGVLm3s_ddeEHZAAZ-17" value="YES" style="edgeStyle=orthogonalEdgeStyle;rounded=0;orthogonalLoop=1;jettySize=auto;html=1;" edge="1" parent="WIyWlLk6GJQsqaUBKTNV-1" source="4yEzGVLm3s_ddeEHZAAZ-6" target="4yEzGVLm3s_ddeEHZAAZ-15">
          <mxGeometry x="-0.4" relative="1" as="geometry">
            <mxPoint as="offset" />
          </mxGeometry>
        </mxCell>
        <mxCell id="4yEzGVLm3s_ddeEHZAAZ-6" value="Getting Employee&#39;s Coordinates" style="rhombus;whiteSpace=wrap;html=1;spacingTop=7;" vertex="1" parent="WIyWlLk6GJQsqaUBKTNV-1">
          <mxGeometry x="165" y="290" width="170" height="90" as="geometry" />
        </mxCell>
        <mxCell id="4yEzGVLm3s_ddeEHZAAZ-9" value="NO" style="edgeStyle=none;orthogonalLoop=1;jettySize=auto;html=1;rounded=0;entryX=0;entryY=0.5;entryDx=0;entryDy=0;exitX=0;exitY=0.5;exitDx=0;exitDy=0;" edge="1" parent="WIyWlLk6GJQsqaUBKTNV-1" source="4yEzGVLm3s_ddeEHZAAZ-6" target="4yEzGVLm3s_ddeEHZAAZ-1">
          <mxGeometry width="100" relative="1" as="geometry">
            <mxPoint x="190" y="330" as="sourcePoint" />
            <mxPoint x="90" y="120" as="targetPoint" />
            <Array as="points">
              <mxPoint x="90" y="335" />
              <mxPoint x="90" y="120" />
            </Array>
          </mxGeometry>
        </mxCell>
        <mxCell id="4yEzGVLm3s_ddeEHZAAZ-20" value="NO" style="edgeStyle=orthogonalEdgeStyle;rounded=0;orthogonalLoop=1;jettySize=auto;html=1;exitX=0;exitY=0.5;exitDx=0;exitDy=0;entryX=0.5;entryY=1;entryDx=0;entryDy=0;" edge="1" parent="WIyWlLk6GJQsqaUBKTNV-1" source="4yEzGVLm3s_ddeEHZAAZ-15" target="4yEzGVLm3s_ddeEHZAAZ-19">
          <mxGeometry x="-0.1875" relative="1" as="geometry">
            <mxPoint as="offset" />
          </mxGeometry>
        </mxCell>
        <mxCell id="4yEzGVLm3s_ddeEHZAAZ-29" value="" style="edgeStyle=orthogonalEdgeStyle;rounded=0;orthogonalLoop=1;jettySize=auto;html=1;" edge="1" parent="WIyWlLk6GJQsqaUBKTNV-1" source="4yEzGVLm3s_ddeEHZAAZ-15" target="4yEzGVLm3s_ddeEHZAAZ-28">
          <mxGeometry relative="1" as="geometry" />
        </mxCell>
        <mxCell id="4yEzGVLm3s_ddeEHZAAZ-15" value="&lt;div style=&quot;&quot;&gt;&lt;span style=&quot;background-color: initial;&quot;&gt;Is the employee within the geofence?&lt;/span&gt;&lt;/div&gt;" style="rhombus;whiteSpace=wrap;html=1;align=center;spacingLeft=30;spacingRight=30;spacingTop=5;" vertex="1" parent="WIyWlLk6GJQsqaUBKTNV-1">
          <mxGeometry x="165" y="450" width="170" height="90" as="geometry" />
        </mxCell>
        <mxCell id="4yEzGVLm3s_ddeEHZAAZ-22" style="edgeStyle=orthogonalEdgeStyle;rounded=0;orthogonalLoop=1;jettySize=auto;html=1;entryX=0.5;entryY=0;entryDx=0;entryDy=0;" edge="1" parent="WIyWlLk6GJQsqaUBKTNV-1" source="4yEzGVLm3s_ddeEHZAAZ-19" target="4yEzGVLm3s_ddeEHZAAZ-15">
          <mxGeometry relative="1" as="geometry">
            <Array as="points">
              <mxPoint x="250" y="430" />
            </Array>
          </mxGeometry>
        </mxCell>
        <mxCell id="4yEzGVLm3s_ddeEHZAAZ-19" value="Wait For 10 Sec" style="whiteSpace=wrap;html=1;aspect=fixed;" vertex="1" parent="WIyWlLk6GJQsqaUBKTNV-1">
          <mxGeometry x="45" y="400" width="60" height="60" as="geometry" />
        </mxCell>
        <mxCell id="4yEzGVLm3s_ddeEHZAAZ-40" value="YES" style="edgeStyle=orthogonalEdgeStyle;rounded=0;orthogonalLoop=1;jettySize=auto;html=1;" edge="1" parent="WIyWlLk6GJQsqaUBKTNV-1" source="4yEzGVLm3s_ddeEHZAAZ-28" target="4yEzGVLm3s_ddeEHZAAZ-39">
          <mxGeometry relative="1" as="geometry" />
        </mxCell>
        <mxCell id="4yEzGVLm3s_ddeEHZAAZ-28" value="Is Network Available?" style="rhombus;whiteSpace=wrap;html=1;align=center;spacingLeft=30;spacingRight=30;spacingTop=5;" vertex="1" parent="WIyWlLk6GJQsqaUBKTNV-1">
          <mxGeometry x="165" y="620" width="170" height="90" as="geometry" />
        </mxCell>
        <mxCell id="4yEzGVLm3s_ddeEHZAAZ-35" value="NO" style="edgeStyle=orthogonalEdgeStyle;rounded=0;orthogonalLoop=1;jettySize=auto;html=1;exitX=0;exitY=0.5;exitDx=0;exitDy=0;entryX=0.5;entryY=1;entryDx=0;entryDy=0;" edge="1" parent="WIyWlLk6GJQsqaUBKTNV-1" source="4yEzGVLm3s_ddeEHZAAZ-28" target="4yEzGVLm3s_ddeEHZAAZ-31">
          <mxGeometry x="-0.3333" relative="1" as="geometry">
            <mxPoint as="offset" />
          </mxGeometry>
        </mxCell>
        <mxCell id="4yEzGVLm3s_ddeEHZAAZ-36" style="edgeStyle=orthogonalEdgeStyle;rounded=0;orthogonalLoop=1;jettySize=auto;html=1;entryX=0.5;entryY=0;entryDx=0;entryDy=0;" edge="1" parent="WIyWlLk6GJQsqaUBKTNV-1" source="4yEzGVLm3s_ddeEHZAAZ-31" target="4yEzGVLm3s_ddeEHZAAZ-28">
          <mxGeometry relative="1" as="geometry" />
        </mxCell>
        <mxCell id="4yEzGVLm3s_ddeEHZAAZ-31" value="Store Data Locally" style="whiteSpace=wrap;html=1;spacingLeft=30;spacingRight=30;spacingTop=5;" vertex="1" parent="WIyWlLk6GJQsqaUBKTNV-1">
          <mxGeometry x="20" y="570" width="110" height="50" as="geometry" />
        </mxCell>
        <mxCell id="4yEzGVLm3s_ddeEHZAAZ-42" value="" style="edgeStyle=orthogonalEdgeStyle;rounded=0;orthogonalLoop=1;jettySize=auto;html=1;entryX=0.5;entryY=0;entryDx=0;entryDy=0;" edge="1" parent="WIyWlLk6GJQsqaUBKTNV-1" source="4yEzGVLm3s_ddeEHZAAZ-39" target="4yEzGVLm3s_ddeEHZAAZ-43">
          <mxGeometry relative="1" as="geometry">
            <mxPoint x="250" y="935" as="targetPoint" />
          </mxGeometry>
        </mxCell>
        <mxCell id="4yEzGVLm3s_ddeEHZAAZ-39" value="Push Data to the Server" style="shape=parallelogram;perimeter=parallelogramPerimeter;whiteSpace=wrap;html=1;fixedSize=1;spacingLeft=30;spacingRight=30;spacingTop=5;" vertex="1" parent="WIyWlLk6GJQsqaUBKTNV-1">
          <mxGeometry x="190" y="770" width="120" height="60" as="geometry" />
        </mxCell>
        <object label="Stop" id="4yEzGVLm3s_ddeEHZAAZ-43">
          <mxCell style="ellipse;whiteSpace=wrap;html=1;" vertex="1" parent="WIyWlLk6GJQsqaUBKTNV-1">
            <mxGeometry x="165" y="870" width="170" height="40" as="geometry" />
          </mxCell>
        </object>
      </root>
    </mxGraphModel>
  </diagram>
</mxfile>
